<?xml version="1.0" standalone="no"?>
<!DOCTYPE svg PUBLIC "-//W3C//DTD SVG 1.1//EN" "http://www.w3.org/Graphics/SVG/1.1/DTD/svg11.dtd">
<svg xmlns="http://www.w3.org/2000/svg">
<defs >
<font id="Chivo" horiz-adv-x="574" ><font-face
    font-family="Chivo Medium ExtraBold"
    units-per-em="1000"
    panose-1="0 0 0 0 0 0 0 0 0 0"
    ascent="940"
    descent="-250"
    alphabetic="0" />
<glyph unicode=" " horiz-adv-x="200" />
<glyph unicode="!" horiz-adv-x="305" d="M94 219L46 686H260L209 219H94ZM67 0V167H240V0H67Z" />
<glyph unicode="&quot;" horiz-adv-x="424" d="M280 399L246 539V686H372V539L336 399H280ZM87 399L53 539V686H178V539L144 399H87Z" />
<glyph unicode="#" horiz-adv-x="659" d="M92 0L128 169H27V269H151L181 398H71V499H201L244 696H355L310 499H428L472 696H581L535 499H629V398H517L489 269H596V169H464L427 0H319L356 169H237L201 0H92ZM259 269H380L409 397H288L259 269Z" />
<glyph unicode="$" horiz-adv-x="593" d="M230 -66L244 22Q186 28 137 51T58 116T29 221Q29 226 29 231T30 242H187Q186 240 186 236T186 228Q186 208 196 192T228 165T285 155Q325 155 346 161T377 179T386 207Q386 230 368 243T319 264T251 280T178 301T111
334T62 390T43 478Q43 535 69 575T141 640T244 671L230 758H347L333 674Q394 669 442 648T519 586T548 484V473H392V479Q392 498 383 513T354 537T304 547Q275 547 255 541T225 525T215 498Q215 475 233 462T283 441T351 425T425 405T493 372T542 319T561 236Q561
166 533 120T453 50T333 21L347 -66H230Z" />
<glyph unicode="%" horiz-adv-x="711" d="M102 0L521 686H609L192 0H102ZM151 337Q116 337 89 353T45 398T28 460V563Q28 597 44 624T88 668T151 685H170Q204 685 232 669T276 625T293 563V460Q293 426 277 398T232 354T170 337H151ZM160 405Q179 405 190 417T202
449V574Q202 593 191 605T160 618Q143 618 131 606T119 574V449Q119 430 131 418T160 405ZM541 -1Q506 -1 479 16T435 61T418 123V226Q418 260 434 287T478 331T541 348H560Q594 348 622 332T666 288T683 226V123Q683 89 667 61T622 16T560 -1H541ZM550 68Q569
68 580 80T592 111V237Q592 255 581 268T550 281Q533 281 521 268T509 237V111Q509 93 521 81T550 68Z" />
<glyph unicode="&amp;" horiz-adv-x="720" d="M301 0Q250 0 202 9T117 41T57 102T35 196Q35 260 67 298T155 354L156 361Q125 374 103 394T68 444T55 507Q55 555 75 590T131 649T209 684T297 696Q324 696 349 692V556Q330 562 315 562Q293 562 273 554T242 529T230
488Q230 472 238 455T264 427T308 415H430L479 540H602V415H687V286H602V0H301ZM312 125H424V286H307Q273 286 253 274T223 243T214 207Q214 166 243 146T312 125Z" />
<glyph unicode="&apos;" horiz-adv-x="231" d="M87 399L53 539V686H178V539L144 399H87Z" />
<glyph unicode="(" horiz-adv-x="310" d="M192 -158Q115 -70 74 38T33 264Q33 381 74 489T192 686H289Q255 628 230 557T189 410T174 265Q174 197 189 121T229 -27T289 -158H192Z" />
<glyph unicode=")" horiz-adv-x="310" d="M18 -158Q52 -100 77 -28T117 121T132 265Q132 335 118 410T78 556T18 686H115Q192 598 233 490T274 264Q274 147 233 39T115 -158H18Z" />
<glyph unicode="*" horiz-adv-x="501" d="M169 306L76 371L178 487L28 523L64 626L207 564L194 720H306L291 564L441 625L473 522L320 487L422 371L329 306L248 439L169 306Z" />
<glyph unicode="+" horiz-adv-x="615" d="M248 0V197H51V315H248V512H366V315H563V197H366V0H248Z" />
<glyph unicode="," horiz-adv-x="280" d="M58 -183V-161Q96 -123 114 -83T132 2H55V183H225V30Q225 -32 205 -86T146 -183H58Z" />
<glyph unicode="-" horiz-adv-x="358" d="M52 202V346H306V202H52Z" />
<glyph unicode="." horiz-adv-x="280" d="M54 0V167H227V0H54Z" />
<glyph unicode="/" horiz-adv-x="645" d="M16 -171L506 686H627L138 -171H16Z" />
<glyph unicode="0" horiz-adv-x="615" d="M288 -10Q220 -10 164 22T75 111T42 236V450Q42 520 75 575T164 663T288 696H327Q396 696 451 664T540 576T573 450V236Q573 167 540 111T452 23T327 -10H288ZM307 122Q333 122 352 134T383 167T395 214V473Q395 499 384
519T353 552T308 565Q283 565 263 553T232 520T220 473V214Q220 188 231 168T263 135T307 122Z" />
<glyph unicode="1" horiz-adv-x="615" d="M76 0V139H234V493H76V597Q119 600 167 614T264 651T350 696H411V139H564V0H76Z" />
<glyph unicode="2" horiz-adv-x="615" d="M41 0V38Q41 96 61 138T128 216L323 363Q353 386 367 414T382 474Q382 512 361 533T294 555Q268 555 248 544T216 514T204 471Q204 464 204 458T204 444H45Q45 449 45 454T45 463Q45 529 75 581T161 665T297 696H324Q397
696 451 668T534 591T564 478Q564 427 546 388T495 317T415 251L312 179Q307 175 301 171T290 161T280 151H565V0H41Z" />
<glyph unicode="3" horiz-adv-x="615" d="M270 -10Q188 -10 135 16T56 88T30 187V208H189Q189 159 219 142T293 125Q342 125 370 145T399 212Q399 241 388 258T357 285T314 294H214V407H300Q323 407 341 416T371 443T383 488Q383 512 372 528T339 552T292 561Q250
561 226 541T202 486H51V509Q51 562 82 604T168 671T296 696H323Q393 696 446 672T528 605T558 510Q558 476 546 447T512 397T461 362V355Q512 338 545 302T578 198Q578 138 544 91T449 17T307 -10H270Z" />
<glyph unicode="4" horiz-adv-x="615" d="M317 0V156H28V291Q44 320 63 359T102 443T140 534T172 622T195 696H355Q348 662 332 618T293 527T245 434T194 351T148 289H317V413Q329 429 343 456T371 515T397 574T412 622H487V289H582V156H487V0H317Z" />
<glyph unicode="5" horiz-adv-x="615" d="M305 -10Q226 -10 166 18T73 98T39 222H198Q198 196 210 175T244 141T297 129Q330 129 352 142T385 177T397 228Q397 271 370 298T298 326Q270 326 247 314T210 284L67 304L96 686H526V532H232L222 410Q239 426 275 441T359
457Q420 457 468 433T545 362T574 241Q574 170 539 113T444 23T305 -10Z" />
<glyph unicode="6" horiz-adv-x="615" d="M300 -10Q229 -10 172 22T81 109T47 236V450Q47 521 81 577T172 664T301 696H325Q390 696 443 670T529 593T562 467H402Q402 511 378 535T315 560Q290 560 270 549T237 518T224 473V379Q250 407 288 421T367 436Q428 436
475 413T550 345T578 231Q578 160 544 106T453 21T324 -10H300ZM314 117Q345 117 365 130T395 167T405 224Q405 258 395 281T364 317T314 329Q285 329 265 317T235 281T224 225Q224 191 234 167T265 130T314 117Z" />
<glyph unicode="7" horiz-adv-x="615" d="M140 0Q140 76 159 147T212 286T285 415T369 532H63V686H567V604Q504 519 460 445T389 302T351 159T340 0H140Z" />
<glyph unicode="8" horiz-adv-x="615" d="M302 -10Q225 -10 167 12T77 79T44 188Q44 251 72 289T148 348V352Q113 376 90 407T67 497Q67 562 100 606T188 673T311 696Q378 696 432 673T517 606T548 497Q548 458 538 432T509 388T467 352V348Q515 327 543 290T571
188Q571 124 538 80T444 13T302 -10ZM308 110Q351 110 372 136T393 206Q393 251 371 275T307 300Q266 300 245 275T223 206Q223 159 244 135T308 110ZM308 399Q345 399 367 423T389 489Q389 532 367 555T307 578Q269 578 248 555T226 489Q226 445 249 422T308 399Z"
/>
<glyph unicode="9" horiz-adv-x="615" d="M305 -10Q228 -10 172 17T86 96T55 219H215Q215 178 238 152T301 126Q327 126 347 137T380 169T393 214V307Q367 278 330 264T261 250Q200 250 149 274T69 344T39 459Q39 532 73 585T167 667T304 696Q382 696 442 665T536
578T570 450V236Q570 163 536 108T442 21T305 -10ZM303 357Q334 357 354 370T383 407T393 463Q393 497 383 520T353 556T303 569Q273 569 253 556T223 519T213 462Q213 430 222 407T252 370T303 357Z" />
<glyph unicode=":" horiz-adv-x="299" d="M64 0V167H237V0H64ZM64 344V511H237V344H64Z" />
<glyph unicode=";" horiz-adv-x="299" d="M67 -183V-161Q105 -123 123 -83T141 2H64V183H234V30Q234 -32 214 -86T155 -183H67ZM64 344V511H237V344H64Z" />
<glyph unicode="&lt;" horiz-adv-x="615" d="M553 -8L44 189V321L553 518V389L189 254L553 120V-8Z" />
<glyph unicode="=" horiz-adv-x="614" d="M51 305V423H562V305H51ZM51 87V205H562V87H51Z" />
<glyph unicode="&gt;" horiz-adv-x="615" d="M61 -8V120L425 254L61 389V518L570 321V189L61 -8Z" />
<glyph unicode="?" horiz-adv-x="570" d="M214 211V276Q214 302 227 322T261 362T301 401T334 443T348 495Q348 514 340 531T314 559T272 571Q247 571 232 562T209 539T198 509T195 477Q195 464 195 458T196 450H30Q29 459 28 468T27 488Q27 524 39 555T75 612T131
657T204 686T290 696Q348 696 393 681T471 637T520 570T538 488Q538 440 521 407T479 351T429 311T386 278T369 242V211H214ZM205 0V167H378V0H205Z" />
<glyph unicode="@" horiz-adv-x="903" d="M432 -170Q307 -170 218 -126T82 13T35 254Q35 374 68 458T161 595T299 672T467 697Q584 697 676 654T821 524T874 302Q874 215 857 156T812 60T749 7T677 -10Q613 -10 580 13T540 74Q513 40 474 15T372 -10Q341 -10 310
-5T252 16T211 62T195 142Q195 195 218 229T285 281T391 306T531 313V347Q531 381 511 398T457 415Q430 415 406 401T382 360V354H211Q210 357 210 361T210 370Q210 413 238 447T320 501T444 521H473Q590 521 647 476T704 361V137Q704 117 713 109T734 101Q744
101 756 108T778 137T796 199T804 303Q804 415 761 489T642 600T466 638Q353 638 272 596T148 468T105 253Q105 72 183 -19T432 -110Q455 -110 487 -106T549 -94T597 -78V-143Q576 -151 546 -157T485 -166T432 -170ZM448 101Q470 101 489 111T519 140T531 186V229Q479
229 446 221T397 196T380 155Q380 124 400 113T448 101Z" />
<glyph unicode="A" horiz-adv-x="701" d="M-2 0L235 686H467L703 0H507L462 129H224L180 0H-2ZM268 260H418L346 494H341L268 260Z" />
<glyph unicode="B" horiz-adv-x="655" d="M64 0V686H421Q472 686 514 668T581 613T606 526Q606 477 590 444T547 390T490 358V354Q513 349 536 338T579 307T610 261T622 198Q622 139 594 95T520 25T420 0H64ZM239 139H368Q390 139 406 148T431 176T440 218Q440
240 430 254T405 276T370 283H239V139ZM239 416H365Q387 416 401 426T421 454T427 490Q427 524 411 538T368 553H239V416Z" />
<glyph unicode="C" horiz-adv-x="680" d="M344 -10Q280 -10 225 9T127 67T62 162T38 296V391Q38 463 62 520T129 616T227 675T343 696H367Q427 696 478 679T568 627T628 537T650 409H473Q473 465 460 497T420 542T353 555Q328 555 307 547T270 524T247 485T239
430V256Q239 215 252 187T292 145T353 131Q398 131 426 144T467 188T480 275L650 276Q650 208 629 155T569 65T479 9T369 -10H344Z" />
<glyph unicode="D" horiz-adv-x="696" d="M64 0V686H361Q422 686 476 666T571 607T635 515T658 394V307Q658 240 635 184T571 87T476 23T361 0H64ZM253 143H343Q376 143 401 158T442 202T457 269V427Q457 466 442 492T402 531T343 545H253V143Z" />
<glyph unicode="E" horiz-adv-x="599" d="M64 0V686H566L548 542H250V419H533V280H250V144H549L568 0H64Z" />
<glyph unicode="F" horiz-adv-x="560" d="M64 0V686H548L529 542H249V406H506V267H249V0H64Z" />
<glyph unicode="G" horiz-adv-x="696" d="M320 -10Q259 -10 208 12T118 75T59 172T38 296V391Q38 458 60 514T125 611T223 674T348 696H373Q430 696 480 678T567 627T626 546T647 441H473Q473 480 459 505T418 543T354 555Q329 555 308 547T271 523T247 483T239
430V256Q239 226 247 203T270 164T307 139T354 131Q382 131 404 136T441 155T464 188T473 237V256H341V379H647V141Q647 94 649 64T654 0H552L526 76Q495 37 441 14T329 -10H320Z" />
<glyph unicode="H" horiz-adv-x="697" d="M64 0V686H253V425H443V686H633V0H444V275H254V0H64Z" />
<glyph unicode="I" horiz-adv-x="435" d="M42 0V135H123V551H42V686H393V551H312V135H393V0H42Z" />
<glyph unicode="J" horiz-adv-x="542" d="M231 -10Q166 -10 118 12T43 76T16 179V245H189V189Q189 161 204 146T243 131Q259 131 271 138T291 158T298 189V686H483V192Q483 130 454 85T374 15T258 -10H231Z" />
<glyph unicode="K" horiz-adv-x="677" d="M64 0V686H253V396L472 686H674L458 408L681 0H470L334 262L253 167V0H64Z" />
<glyph unicode="L" horiz-adv-x="543" d="M64 0V686H253V150H516L535 0H64Z" />
<glyph unicode="M" horiz-adv-x="993" d="M64 0V686H372L495 285H498L619 686H929V0H741V466H737L595 0H381L240 466H235V0H64Z" />
<glyph unicode="N" horiz-adv-x="696" d="M64 0V686H222L422 395L454 334L459 337V686H632V0H470L264 302L242 345L237 343V0H64Z" />
<glyph unicode="O" horiz-adv-x="714" d="M333 -10Q272 -10 219 12T125 75T61 172T38 296V389Q38 457 61 513T124 609T218 672T333 694H381Q443 694 496 672T590 610T654 513T677 389V296Q677 228 654 172T590 76T496 13T382 -10H333ZM357 131Q383 131 404 139T442
164T466 203T475 256V428Q475 458 467 481T442 521T405 545T357 553Q332 553 311 545T273 521T248 482T239 429V256Q239 226 248 203T273 164T310 139T357 131Z" />
<glyph unicode="P" horiz-adv-x="642" d="M64 0V686H418Q475 686 522 660T596 588T624 485V465Q624 408 596 360T520 283T416 253H253V0H64ZM253 392H363Q384 392 399 401T424 428T433 469Q433 499 415 521T362 544H253V392Z" />
<glyph unicode="Q" horiz-adv-x="714" d="M504 -158Q430 -158 383 -134T312 -74T280 -5Q228 4 184 29T107 93T56 183T38 296V389Q38 457 61 513T124 609T218 672T333 694H381Q443 694 496 672T590 610T654 513T677 389V296Q677 221 650 162T576 63T469 4Q474 -9
483 -20T509 -38T551 -46Q569 -46 590 -43T634 -33T675 -21V-118Q660 -126 636 -135T579 -151T504 -158ZM357 131Q383 131 404 139T442 164T466 203T475 256V428Q475 458 467 481T442 521T405 545T357 553Q332 553 311 545T273 521T248 482T239 429V256Q239 226
248 203T273 164T310 139T357 131Z" />
<glyph unicode="R" horiz-adv-x="680" d="M556 -9Q514 -9 485 3T439 43T423 120Q423 142 420 165T406 208T377 240T329 252H249V0H64V686H435Q484 686 527 666T597 609T624 516Q624 470 608 433T563 371T502 332V327Q527 319 547 305T581 269T603 223T611 170Q611
151 612 131T619 93T634 64T662 46V8Q639 -1 611 -5T556 -9ZM249 391H368Q386 391 401 402T424 433T433 475Q433 510 415 527T371 544H249V391Z" />
<glyph unicode="S" horiz-adv-x="648" d="M310 -10Q235 -10 172 13T70 83T31 207Q31 213 31 218T32 230H206Q205 226 205 223T205 216Q205 193 216 175T250 146T312 135Q355 135 378 142T411 162T421 193Q421 217 401 231T347 253T274 270T194 292T120 328T67
388T46 482Q46 553 85 600T188 671T330 696Q405 696 466 674T563 607T600 490V478H428V485Q428 506 418 522T386 548T332 558Q301 558 280 552T247 535T236 505Q236 481 256 467T310 443T385 426T466 405T539 371T593 314T614 223Q614 140 575 89T467 14T310 -10Z"
/>
<glyph unicode="T" horiz-adv-x="585" d="M198 0V538H17V686H568V538H387V0H198Z" />
<glyph unicode="U" horiz-adv-x="686" d="M315 -10Q236 -10 178 19T90 100T59 221V686H248V221Q248 181 275 156T343 131Q385 131 411 156T438 221V686H627V221Q627 152 592 100T496 19T353 -10H315Z" />
<glyph unicode="V" horiz-adv-x="649" d="M213 0L0 686H196L331 236H335L468 686H650L435 0H213Z" />
<glyph unicode="W" horiz-adv-x="1007" d="M193 0L4 686H199L306 278H310L417 686H609L715 278H719L826 686H1003L815 0H603L508 364H503L408 0H193Z" />
<glyph unicode="X" horiz-adv-x="669" d="M-9 0L212 363L13 686H232L341 496H345L455 686H657L457 362L678 0H459L328 227H324L194 0H-9Z" />
<glyph unicode="Y" horiz-adv-x="636" d="M224 0V263L-6 686H206L324 442H329L449 686H642L413 263V0H224Z" />
<glyph unicode="Z" horiz-adv-x="606" d="M19 0V56L307 542H43V686H572V630L288 145H580V0H19Z" />
<glyph unicode="[" horiz-adv-x="315" d="M61 -161V686H285V609H197V-84H285V-161H61Z" />
<glyph unicode="\" horiz-adv-x="645" d="M504 -171L15 686H136L626 -171H504Z" />
<glyph unicode="]" horiz-adv-x="315" d="M26 -161V-84H114V609H26V686H250V-161H26Z" />
<glyph unicode="^" horiz-adv-x="600" d="M36 0L233 511H365L562 0H435L301 366L166 0H36Z" />
<glyph unicode="_" horiz-adv-x="694" d="M97 -161V-65H597V-161H97Z" />
<glyph unicode="`" horiz-adv-x="609" d="M305 584L185 758L187 761H336L424 584H305Z" />
<glyph unicode="a" horiz-adv-x="619" d="M191 -10Q150 -10 113 4T52 50T29 136Q29 190 52 224T119 278T225 305T366 313V352Q366 386 345 400T291 415Q259 415 238 401T216 360V354H45Q44 357 44 361T44 370Q44 413 73 447T154 501T278 521H307Q424 521 481 476T538
361V137Q538 117 548 109T569 101Q578 101 587 103T606 111V13Q593 3 570 -3T510 -10Q468 -10 440 1T395 30T374 74Q348 40 303 15T191 -10ZM283 101Q304 101 323 111T354 140T366 186V229Q314 229 281 221T231 196T214 155Q214 124 234 113T283 101Z" />
<glyph unicode="b" horiz-adv-x="605" d="M349 -10Q240 -10 180 77L119 0H56V720H234V456Q257 485 291 503T374 521Q429 521 474 495T546 415T573 273V252Q573 163 542 105T460 19T349 -10ZM309 101Q331 101 347 112T373 143T383 192V318Q383 346 374 365T348
396T310 407Q289 407 272 396T244 365T234 318V192Q234 164 243 144T270 112T309 101Z" />
<glyph unicode="c" horiz-adv-x="566" d="M276 -10Q210 -10 155 22T66 111T33 237V274Q33 327 52 371T106 450T184 502T279 521H306Q379 521 430 493T509 417T537 306H384Q384 341 376 364T349 399T304 411Q269 411 246 387T222 323V189Q222 150 243 126T306 101Q337
101 356 110T385 143T394 206H537Q537 137 507 89T424 16T302 -10H276Z" />
<glyph unicode="d" horiz-adv-x="606" d="M237 -10Q173 -10 128 18T58 105T33 252V263Q33 350 61 407T135 492T236 521Q289 521 322 502T372 456V720H550V0H409L392 65Q370 36 332 13T237 -10ZM297 101Q318 101 335 112T362 143T372 192V318Q372 345 363 365T336
396T297 407Q265 407 244 383T222 318V192Q222 164 232 144T259 112T297 101Z" />
<glyph unicode="e" horiz-adv-x="595" d="M297 -10Q221 -10 161 19T67 104T33 241V270Q33 350 67 406T161 492T298 521H320Q396 521 449 492T531 412T560 294V232H222Q222 195 230 165T256 118T307 101Q335 101 354 111T384 143T395 192H559Q559 135 529 89T443
17T311 -10H297ZM223 313H385Q385 364 363 387T305 411Q269 411 246 386T223 313Z" />
<glyph unicode="f" horiz-adv-x="408" d="M92 0V382H30V511H92V583Q92 660 140 694T264 728Q281 728 304 726T350 719T389 707V606Q378 610 358 613T327 617Q315 617 302 614T279 598T270 557V511H390V382H270V0H92Z" />
<glyph unicode="g" horiz-adv-x="587" d="M140 -188Q107 -188 78 -172T30 -128T11 -67Q11 -30 31 0T87 47Q65 62 52 85T39 133Q39 171 65 199T129 239Q97 255 76 282T54 353Q54 397 78 435T153 497T279 521Q308 521 332 519T376 513Q417 538 432 562T448 603H583Q583
566 570 539T532 496T474 470L473 467Q498 446 513 419T529 362Q529 318 503 281T431 222T329 200H258Q227 200 213 190T199 165Q199 150 211 140T258 129H417Q496 129 539 86T583 -22Q583 -66 559 -104T495 -165T401 -188H140ZM214 -84H367Q390 -84 406 -70T422
-36Q422 -17 407 -4T369 10H214Q191 10 176 -3T160 -36Q160 -55 175 -69T214 -84ZM294 290Q326 290 346 310T367 360Q367 389 347 410T294 431Q262 431 242 410T222 360Q222 331 242 311T294 290Z" />
<glyph unicode="h" horiz-adv-x="598" d="M56 0V720H234V449Q262 484 297 502T381 521Q431 521 467 501T524 446T544 365V0H367V322Q367 355 349 374T302 393Q284 393 268 384T243 357T234 319V0H56Z" />
<glyph unicode="i" horiz-adv-x="293" d="M58 0V510H235V0H58ZM57 589V720H236V589H57Z" />
<glyph unicode="j" horiz-adv-x="294" d="M64 -187Q48 -187 25 -184T-22 -176T-60 -165V-63Q-49 -68 -29 -71T2 -75Q23 -75 41 -63T59 -7V510H236V-33Q236 -110 189 -148T64 -187ZM58 589V720H237V589H58Z" />
<glyph unicode="k" horiz-adv-x="594" d="M56 0V720H234V302L386 511H589L405 279L594 0H384L279 158L234 116V0H56Z" />
<glyph unicode="l" horiz-adv-x="291" d="M56 0V720H234V0H56Z" />
<glyph unicode="m" horiz-adv-x="871" d="M56 0V511H189L209 437Q237 475 270 498T359 521Q409 521 446 503T505 442Q530 484 566 502T653 521Q703 521 740 502T797 447T817 365V0H642V324Q642 357 626 374T584 392Q567 392 554 384T532 360T524 323V0H349V324Q349
357 333 374T291 392Q274 392 261 384T239 360T231 323V0H56Z" />
<glyph unicode="n" horiz-adv-x="598" d="M56 0V511H189L208 437Q240 480 280 500T377 521Q428 521 466 502T524 447T544 365V0H367V322Q367 355 349 374T302 393Q284 393 268 384T243 357T234 319V0H56Z" />
<glyph unicode="o" horiz-adv-x="609" d="M291 -10Q217 -10 159 22T67 112T33 246V266Q33 343 66 400T158 489T290 521H318Q393 521 451 489T542 400T576 266V246Q576 169 543 112T451 22T319 -10H291ZM304 101Q328 101 346 112T376 143T387 190V322Q387 349 376
368T347 399T304 411Q282 411 263 400T233 369T222 322V190Q222 164 233 144T263 112T304 101Z" />
<glyph unicode="p" horiz-adv-x="605" d="M56 -181V511H197L214 450Q235 478 272 499T360 521Q421 521 469 495T545 414T573 270V249Q573 163 545 105T471 19T370 -10Q317 -10 284 9T234 56V-181H56ZM309 101Q330 101 347 112T373 144T383 190V316Q383 345 374
365T347 396T309 408Q288 408 271 397T243 366T233 317V190Q233 164 243 144T270 112T309 101Z" />
<glyph unicode="q" horiz-adv-x="606" d="M372 -180V55Q355 34 321 12T234 -10Q171 -10 126 18T57 102T33 246V257Q33 346 64 404T146 491T256 520Q311 520 350 502T418 441L486 511H550V-180H372ZM297 101Q318 101 335 112T362 143T372 190V316Q372 345 362 365T335
396T297 407Q276 407 259 396T232 365T222 316V190Q222 164 232 144T259 112T297 101Z" />
<glyph unicode="r" horiz-adv-x="504" d="M56 0V511H189L209 437Q212 442 221 455T247 484T288 510T346 521Q396 521 427 503T473 449T488 365Q488 353 487 338T484 307H338V330Q338 346 333 360T316 383T285 392Q271 392 261 386T244 372T234 352T230 328V0H56Z" />
<glyph unicode="s" horiz-adv-x="556" d="M246 -10Q203 -10 164 0T94 30T45 79T27 147Q27 152 27 156T28 166H176Q175 163 175 162T175 158Q175 137 190 124T227 106T272 101Q287 101 308 104T347 115T365 141Q365 160 348 169T302 184T239 194T170 208T107 233T61
279T43 354Q43 397 63 429T117 481T191 511T273 521H300Q335 521 372 513T442 487T493 443T513 384Q513 377 513 371T511 360H363V366Q363 377 357 385T339 400T313 409T282 413Q269 413 255 411T228 405T207 394T199 375Q199 358 217 350T263 337T327 328T396
315T460 290T506 243T524 167Q524 117 504 83T451 29T377 -1T291 -10H246Z" />
<glyph unicode="t" horiz-adv-x="409" d="M255 -11Q205 -11 166 1T105 44T83 126V382H27V511H90L152 674H261V511H381V382H261V169Q261 125 279 113T318 101Q329 101 348 104T380 113V11Q365 4 342 -1T295 -8T255 -11Z" />
<glyph unicode="u" horiz-adv-x="627" d="M218 -10Q139 -10 96 33T52 154V511H229V191Q229 157 244 138T293 118Q312 118 328 128T353 155T363 192V511H540V137Q540 117 550 109T571 101Q580 101 589 103T608 111V13Q595 3 572 -3T512 -10Q471 -10 444 0T401 29T376
72Q351 33 310 12T218 -10Z" />
<glyph unicode="v" horiz-adv-x="553" d="M174 0L3 511H192L281 199H288L377 511H550L377 0H174Z" />
<glyph unicode="w" horiz-adv-x="849" d="M157 0L8 511H192L262 231H268L341 511H521L593 231H600L670 511H842L691 0H493L429 245H422L359 0H157Z" />
<glyph unicode="x" horiz-adv-x="576" d="M0 0L172 269L16 511H221L295 381H298L372 511H564L404 265L575 0H370L283 154H280L191 0H0Z" />
<glyph unicode="y" horiz-adv-x="547" d="M129 -187Q100 -187 76 -184T35 -172V-53Q46 -58 67 -62T108 -66Q137 -66 153 -54T177 -24T191 13L0 511H190L282 223H289L371 511H546L370 33Q347 -29 314 -78T236 -157T129 -187Z" />
<glyph unicode="z" horiz-adv-x="493" d="M26 0V58L227 398H38V511H457V456L256 113H465V0H26Z" />
<glyph unicode="{" horiz-adv-x="339" d="M310 -159Q242 -167 196 -157T125 -119T101 -47V169Q101 199 77 211T24 224V303Q50 303 75 316T101 360V574Q101 619 125 647T196 685T310 686V622Q296 622 279 620T249 608T234 579L224 371Q222 322 200 295T126 268V259Q177
259 199 232T224 156L234 -51Q236 -70 248 -79T278 -92T310 -95V-159Z" />
<glyph unicode="|" horiz-adv-x="234" d="M62 -199V720H173V-199H62Z" />
<glyph unicode="}" horiz-adv-x="339" d="M25 -159V-95Q40 -95 57 -92T88 -80T102 -51L111 156Q113 205 136 232T210 259V268Q159 268 136 295T111 371L102 579Q101 598 88 607T57 619T25 622V686Q94 695 140 685T211 647T235 574V360Q235 330 259 317T311 303V224Q285
224 260 212T235 169V-47Q235 -91 211 -119T139 -157T25 -159Z" />
<glyph unicode="~" horiz-adv-x="654" d="M46 195V312Q56 322 71 335T107 360T153 381T209 390Q241 390 270 380T327 357T384 334T447 324Q476 324 501 332T548 352T585 377T610 402V285Q601 274 586 261T549 235T502 215T447 207Q415 207 386 217T329 240T272
263T209 273Q179 273 154 265T107 245T71 219T46 195Z" />
<glyph unicode="&#xa0;" horiz-adv-x="200" />
<glyph unicode="&#xa1;" horiz-adv-x="291" d="M206 293L254 -175H40L91 293H206ZM233 511V344H60V511H233Z" />
<glyph unicode="&#xa2;" horiz-adv-x="572" d="M234 -9L250 78Q190 86 141 120T63 207T34 323V361Q34 425 63 478T141 564T250 606L234 694H352L339 606Q403 599 447 570T515 496T539 392H386Q386 427 377 450T351 485T306 497Q271 497 248 472T224 408V276Q224
236 248 212T307 187Q338 187 357 196T386 229T396 292H539Q539 228 515 182T446 110T339 78L354 -9H234Z" />
<glyph unicode="&#xa3;" horiz-adv-x="657" d="M64 0V133H133V273H64V406H133V497Q133 555 166 601T256 673T380 700Q449 700 505 674T594 602T628 498V472H449V497Q449 528 429 547T380 566Q351 566 331 547T311 497V406H436V273H310L291 133H579V0H64Z" />
<glyph unicode="&#xa4;" horiz-adv-x="609" d="M104 81L46 139L103 197Q81 223 69 260T56 339Q56 380 68 418T103 481L46 538L106 598L163 541Q187 562 225 574T304 587Q346 587 383 575T443 543L500 601L565 536L509 481Q530 458 541 420T552 339Q552 298 541
260T507 195L563 139L505 82L448 140Q424 116 386 104T304 91Q262 91 224 103T161 138L104 81ZM304 192Q345 192 376 212T424 265T442 339Q442 379 425 412T376 465T304 485Q265 485 234 466T184 413T166 339Q166 298 184 265T234 212T304 192Z" />
<glyph unicode="&#xa5;" horiz-adv-x="700" d="M253 0V227H66V314H226L196 367H66V454H149L23 686H235L353 442H357L478 686H670L544 454H633V367H498L468 314H633V227H441V0H253Z" />
<glyph unicode="&#xa6;" horiz-adv-x="234" d="M62 360V720H173V360H62ZM62 -200V160H173V-200H62Z" />
<glyph unicode="&#xa7;" horiz-adv-x="558" d="M270 -185Q231 -185 193 -177T123 -151T72 -105T52 -34Q52 -32 52 -30T52 -26H201V-31Q201 -41 206 -49T222 -64T245 -73T275 -77Q289 -77 302 -75T328 -66T347 -52T354 -32Q354 -8 331 10T272 43T194 76T116 117T56
174T32 256Q32 299 54 339T115 403Q82 422 64 458T46 531Q46 575 66 606T118 657T191 686T271 696H281Q319 696 358 688T431 662T484 615T505 545Q505 543 505 540T505 535H357V540Q357 550 352 559T336 574T312 584T280 588Q261 588 247 585T223 574T208 557T203
535Q203 512 226 496T286 465T364 433T441 393T501 337T525 255Q525 212 503 172T443 108Q472 88 491 59T511 -13Q511 -57 490 -89T434 -143T358 -174T275 -185H270ZM354 158Q365 162 373 171T386 191T391 216Q391 242 371 262T322 299T261 327T208 350Q198 345
189 337T175 317T170 292Q170 266 190 246T240 209T300 181T354 158Z" />
<glyph unicode="&#xa8;" horiz-adv-x="609" d="M114 604V735H248V604H114ZM361 604V735H495V604H361Z" />
<glyph unicode="&#xa9;" horiz-adv-x="772" d="M386 -10Q312 -10 248 17T136 93T60 206T32 344Q32 417 59 481T135 593T248 668T386 696Q459 696 523 669T636 593T712 481T740 344Q740 270 713 206T636 94T523 18T386 -10ZM386 50Q449 50 501 71T592 130T650 223T671
344Q671 409 651 463T592 556T502 616T386 637Q321 637 269 616T179 556T121 463T101 344Q101 278 121 224T178 131T268 71T386 50ZM384 131Q333 131 291 151T223 212T198 309V378Q198 432 223 472T289 534T380 556Q442 556 483 536T545 477T566 382H459Q459 426
443 448T388 470Q359 470 339 451T319 401V285Q319 255 339 236T388 217Q433 217 449 237T465 303H566Q566 249 545 211T483 152T384 131Z" />
<glyph unicode="&#xaa;" horiz-adv-x="419" d="M138 376Q110 376 87 385T51 415T38 467Q38 510 63 532T133 563T240 571V590Q240 610 228 620T196 630Q182 630 167 622T152 598V594H49Q48 597 48 599T48 604Q48 643 86 669T189 695H206Q277 695 311 668T345 598V465Q345
453 351 449T363 444Q369 444 373 445T386 450V390Q376 384 362 380T327 376Q290 376 270 389T245 425Q229 406 202 391T138 376ZM191 444Q211 444 225 456T240 494V519Q210 519 190 514T161 500T151 475Q151 457 162 451T191 444Z" />
<glyph unicode="&#xab;" horiz-adv-x="445" d="M334 163L214 337L334 511H404L317 337L404 163H334ZM153 163L33 337L153 511H223L136 337L223 163H153Z" />
<glyph unicode="&#xac;" horiz-adv-x="622" d="M431 162V340H34V477H568V162H431Z" />
<glyph unicode="&#xad;" horiz-adv-x="358" d="M52 202V346H306V202H52Z" />
<glyph unicode="&#xae;" horiz-adv-x="772" d="M386 -10Q312 -10 248 17T136 93T60 206T32 344Q32 417 59 481T135 593T248 668T386 696Q459 696 523 669T636 593T712 481T740 344Q740 270 713 206T636 94T523 18T386 -10ZM386 50Q449 50 501 71T592 130T650 223T671
344Q671 409 651 463T592 556T502 616T386 637Q321 637 269 616T179 556T121 463T101 344Q101 278 121 224T178 131T268 71T386 50ZM519 130Q495 130 477 136T450 160T440 208Q440 228 436 248T419 283T383 298H336V135H225V547H447Q491 547 526 520T561 446Q561
408 539 380T488 342Q510 335 524 320T546 283T554 238Q554 224 555 209T563 180T584 163V141Q570 135 553 133T519 130ZM336 377H409Q432 377 438 391T445 426Q445 442 437 454T409 466H336V377Z" />
<glyph unicode="&#xaf;" horiz-adv-x="609" d="M127 610V702H482V610H127Z" />
<glyph unicode="&#xb0;" horiz-adv-x="360" d="M180 396Q139 396 105 416T50 470T30 546Q30 587 50 621T104 675T180 696Q221 696 255 676T309 621T330 546Q330 505 310 471T255 416T180 396ZM179 477Q208 477 227 497T247 545Q247 574 227 593T178 613Q151 613
131 593T111 545Q111 517 130 497T179 477Z" />
<glyph unicode="&#xb1;" horiz-adv-x="615" d="M248 155V274H51V392H248V512H366V392H563V274H366V155H248ZM52 0V118H562V0H52Z" />
<glyph unicode="&#xb2;" horiz-adv-x="372" d="M42 422V441Q42 472 53 496T87 539L194 624Q209 635 217 650T225 683Q225 703 213 715T176 727Q157 727 144 715T131 683Q131 679 131 676T131 668H44Q44 670 44 673T44 678Q44 731 82 767T185 804Q252 804 288 773T324
687Q324 651 309 624T267 576L198 525Q191 520 185 515T174 505H325V422H42Z" />
<glyph unicode="&#xb3;" horiz-adv-x="356" d="M172 413Q93 413 60 441T26 520V532H114V527Q114 510 128 499T167 487Q192 487 208 499T224 535Q224 560 211 570T179 580H125V642H172Q190 642 202 652T215 687Q215 706 203 716T168 727Q149 727 135 716T121 691V687H38V700Q38
743 76 772T176 801Q240 801 275 774T311 700Q311 671 297 648T260 616Q286 606 304 587T322 531Q322 480 282 447T172 413Z" />
<glyph unicode="&#xb4;" horiz-adv-x="609" d="M185 584L273 761H422L424 758L304 584H185Z" />
<glyph unicode="&#xb5;" horiz-adv-x="644" d="M60 -161V511H237V188Q237 156 253 137T302 118Q322 118 337 128T361 155T370 192V511H548V137Q548 117 557 109T578 101Q588 101 597 103T616 111V13Q603 3 580 -3T520 -10Q478 -10 451 0T409 29T384 72Q372 45
346 20T276 -6Q264 -6 251 -3T228 5Q232 -11 234 -29T237 -63V-161H60Z" />
<glyph unicode="&#xb6;" d="M230 -163V253Q173 255 127 285T53 363T26 469Q26 530 55 579T133 657T243 686H538V611H472V-163H389V611H313V-163H230Z" />
<glyph unicode="&#xb7;" horiz-adv-x="282" d="M54 205V372H228V205H54Z" />
<glyph unicode="&#xb8;" horiz-adv-x="609" d="M298 -211Q267 -211 237 -203T185 -178L213 -120Q228 -130 246 -139T294 -148Q313 -148 324 -140T335 -118Q335 -103 326 -98T303 -92H281V-31H315Q343 -31 367 -39T408 -65T424 -116Q424 -150 405 -171T357 -201T298 -211Z" />
<glyph unicode="&#xb9;" horiz-adv-x="338" d="M42 422V498H127V686H42V743Q78 745 118 761T189 796H223V498H301V422H42Z" />
<glyph unicode="&#xba;" horiz-adv-x="397" d="M197 378Q123 378 79 420T35 531V544Q35 615 80 656T199 697Q273 697 317 656T362 544V531Q362 460 317 419T197 378ZM199 446Q219 446 233 460T247 498V577Q247 600 233 614T199 629Q179 629 165 615T150 577V498Q150
474 164 460T199 446Z" />
<glyph unicode="&#xbb;" horiz-adv-x="445" d="M40 163L126 337L40 511H109L230 337L109 163H40ZM221 163L308 337L221 511H290L411 337L290 163H221Z" />
<glyph unicode="&#xbc;" horiz-adv-x="879" d="M42 568V644H127V832H42V889Q78 891 118 907T189 942H223V644H301V568H42ZM178 0L598 686H678L261 0H178ZM699 0V83H544V158Q554 175 567 202T593 262T617 323T634 375H721Q717 353 705 323T676 261T642 203T611
158H699V223Q707 235 717 256T737 299T750 335H792V158H843V83H792V0H699Z" />
<glyph unicode="&#xbd;" horiz-adv-x="891" d="M42 568V644H127V832H42V889Q78 891 118 907T189 942H223V644H301V568H42ZM178 0L598 686H678L261 0H178ZM561 0V19Q561 50 572 74T606 117L713 202Q728 213 736 228T744 261Q744 281 732 293T695 305Q676 305 663
293T650 261Q650 257 650 254T650 246H563Q563 248 563 251T563 256Q563 309 601 345T704 382Q771 382 807 351T843 265Q843 229 828 202T786 154L717 103Q710 98 704 93T693 83H844V0H561Z" />
<glyph unicode="&#xbe;" horiz-adv-x="896" d="M172 564Q93 564 60 592T26 671V683H114V678Q114 661 128 650T167 638Q192 638 208 650T224 686Q224 711 211 721T179 731H125V793H172Q190 793 202 803T215 838Q215 857 203 867T168 878Q149 878 135 867T121 842V838H38V851Q38
894 76 923T176 952Q240 952 275 925T311 851Q311 822 297 799T260 767Q286 757 304 738T322 682Q322 631 282 598T172 564ZM196 0L616 686H696L279 0H196ZM716 0V83H561V158Q571 175 584 202T610 262T634 323T651 375H738Q734 353 722 323T693 261T659 203T628
158H716V223Q724 235 734 256T754 299T767 335H809V158H860V83H809V0H716Z" />
<glyph unicode="&#xbf;" horiz-adv-x="566" d="M356 300V235Q356 209 343 189T309 149T269 111T236 68T222 16Q222 -2 230 -19T256 -48T298 -59Q323 -59 338 -51T361 -28T372 2T375 34Q375 48 375 54T374 62H540Q541 52 542 43T543 23Q543 -13 531 -44T495 -101T439
-146T366 -175T280 -185Q223 -185 177 -170T99 -126T50 -59T32 23Q32 71 49 104T92 160T142 200T184 233T201 269V300H356ZM365 511V344H192V511H365Z" />
<glyph unicode="&#xc0;" horiz-adv-x="701" d="M-2 0L235 686H467L703 0H507L462 129H224L180 0H-2ZM268 260H418L346 494H341L268 260ZM548 745L424 885L426 888H582L675 745H548Z" />
<glyph unicode="&#xc1;" horiz-adv-x="701" d="M-2 0L235 686H467L703 0H507L462 129H224L180 0H-2ZM268 260H418L346 494H341L268 260ZM287 745L380 888H536L538 885L414 745H287Z" />
<glyph unicode="&#xc2;" horiz-adv-x="701" d="M-2 0L235 686H467L703 0H507L462 129H224L180 0H-2ZM268 260H418L346 494H341L268 260ZM157 750L268 885H434L544 750H422L334 853H367L279 750H157Z" />
<glyph unicode="&#xc3;" horiz-adv-x="701" d="M-2 0L235 686H467L703 0H507L462 129H224L180 0H-2ZM268 260H418L346 494H341L268 260ZM150 745Q153 787 168 820T209 872T272 891Q307 891 334 881T384 860T429 849Q449 849 460 860T477 890H551Q549 849 534 816T492
763T429 744Q394 744 367 754T317 775T271 786Q252 786 241 775T225 745H150Z" />
<glyph unicode="&#xc4;" horiz-adv-x="701" d="M-2 0L235 686H467L703 0H507L462 129H224L180 0H-2ZM268 260H418L346 494H341L268 260ZM160 751V882H294V751H160ZM407 751V882H541V751H407Z" />
<glyph unicode="&#xc5;" horiz-adv-x="701" d="M-2 0L235 686H467L703 0H507L462 129H224L180 0H-2ZM268 260H418L346 494H341L268 260ZM350 722Q304 722 273 750T242 826Q242 873 273 902T351 931Q397 931 428 902T459 826Q459 780 428 751T350 722ZM351 788Q367
788 377 799T388 827Q388 842 377 853T351 864Q334 864 324 853T313 825Q313 810 324 799T351 788Z" />
<glyph unicode="&#xc6;" horiz-adv-x="1006" d="M-9 0L324 686H973L955 542H584L610 419H940V281H638L667 145H956L975 0H510L483 129H235L172 0H-9ZM298 260H456L408 494L403 493L298 260Z" />
<glyph unicode="&#xc7;" horiz-adv-x="680" d="M344 -10Q280 -10 225 9T127 67T62 162T38 296V391Q38 463 62 520T129 616T227 675T343 696H367Q427 696 478 679T568 627T628 537T650 409H473Q473 465 460 497T420 542T353 555Q328 555 307 547T270 524T247 485T239
430V256Q239 215 252 187T292 145T353 131Q398 131 426 144T467 188T480 275L650 276Q650 208 629 155T569 65T479 9T369 -10H344ZM340 -211Q309 -211 279 -203T227 -178L255 -120Q270 -130 288 -139T336 -148Q355 -148 366 -140T377 -118Q377 -103 368 -98T345
-92H323V-31H357Q385 -31 409 -39T450 -65T466 -116Q466 -150 447 -171T399 -201T340 -211Z" />
<glyph unicode="&#xc8;" horiz-adv-x="599" d="M64 0V686H566L548 542H250V419H533V280H250V144H549L568 0H64ZM515 745L391 885L393 888H549L642 745H515Z" />
<glyph unicode="&#xc9;" horiz-adv-x="599" d="M64 0V686H566L548 542H250V419H533V280H250V144H549L568 0H64ZM254 745L347 888H503L505 885L381 745H254Z" />
<glyph unicode="&#xca;" horiz-adv-x="599" d="M64 0V686H566L548 542H250V419H533V280H250V144H549L568 0H64ZM125 750L236 885H402L512 750H390L302 853H335L247 750H125Z" />
<glyph unicode="&#xcb;" horiz-adv-x="599" d="M64 0V686H566L548 542H250V419H533V280H250V144H549L568 0H64ZM128 751V882H262V751H128ZM375 751V882H509V751H375Z" />
<glyph unicode="&#xcc;" horiz-adv-x="435" d="M42 0V135H123V551H42V686H393V551H312V135H393V0H42ZM158 745L34 885L36 888H192L285 745H158Z" />
<glyph unicode="&#xcd;" horiz-adv-x="435" d="M42 0V135H123V551H42V686H393V551H312V135H393V0H42ZM409 745L502 888H658L660 885L536 745H409Z" />
<glyph unicode="&#xce;" horiz-adv-x="435" d="M42 0V135H123V551H42V686H393V551H312V135H393V0H42ZM279 750L390 885H556L666 750H544L456 853H489L401 750H279Z" />
<glyph unicode="&#xcf;" horiz-adv-x="435" d="M42 0V135H123V551H42V686H393V551H312V135H393V0H42ZM282 751V882H416V751H282ZM529 751V882H663V751H529Z" />
<glyph unicode="&#xd0;" horiz-adv-x="696" d="M64 0V686H361Q422 686 476 666T571 607T635 515T658 394V307Q658 240 635 184T571 87T476 23T361 0H64ZM253 143H343Q376 143 401 158T442 202T457 269V427Q457 466 442 492T402 531T343 545H253V143ZM254 547V661H651V547H254Z"
/>
<glyph unicode="&#xd1;" horiz-adv-x="696" d="M64 0V686H222L422 395L454 334L459 337V686H632V0H470L264 302L242 345L237 343V0H64ZM153 745Q156 787 171 820T212 872T275 891Q310 891 337 881T387 860T432 849Q452 849 463 860T480 890H554Q552 849 537 816T495
763T432 744Q397 744 370 754T320 775T274 786Q255 786 244 775T228 745H153Z" />
<glyph unicode="&#xd2;" horiz-adv-x="714" d="M333 -10Q272 -10 219 12T125 75T61 172T38 296V389Q38 457 61 513T124 609T218 672T333 694H381Q443 694 496 672T590 610T654 513T677 389V296Q677 228 654 172T590 76T496 13T382 -10H333ZM357 131Q383 131 404
139T442 164T466 203T475 256V428Q475 458 467 481T442 521T405 545T357 553Q332 553 311 545T273 521T248 482T239 429V256Q239 226 248 203T273 164T310 139T357 131ZM554 745L430 885L432 888H588L681 745H554Z" />
<glyph unicode="&#xd3;" horiz-adv-x="714" d="M333 -10Q272 -10 219 12T125 75T61 172T38 296V389Q38 457 61 513T124 609T218 672T333 694H381Q443 694 496 672T590 610T654 513T677 389V296Q677 228 654 172T590 76T496 13T382 -10H333ZM357 131Q383 131 404
139T442 164T466 203T475 256V428Q475 458 467 481T442 521T405 545T357 553Q332 553 311 545T273 521T248 482T239 429V256Q239 226 248 203T273 164T310 139T357 131ZM293 745L386 888H542L544 885L420 745H293Z" />
<glyph unicode="&#xd4;" horiz-adv-x="714" d="M333 -10Q272 -10 219 12T125 75T61 172T38 296V389Q38 457 61 513T124 609T218 672T333 694H381Q443 694 496 672T590 610T654 513T677 389V296Q677 228 654 172T590 76T496 13T382 -10H333ZM357 131Q383 131 404
139T442 164T466 203T475 256V428Q475 458 467 481T442 521T405 545T357 553Q332 553 311 545T273 521T248 482T239 429V256Q239 226 248 203T273 164T310 139T357 131ZM164 750L275 885H441L551 750H429L341 853H374L286 750H164Z" />
<glyph unicode="&#xd5;" horiz-adv-x="714" d="M333 -10Q272 -10 219 12T125 75T61 172T38 296V389Q38 457 61 513T124 609T218 672T333 694H381Q443 694 496 672T590 610T654 513T677 389V296Q677 228 654 172T590 76T496 13T382 -10H333ZM357 131Q383 131 404
139T442 164T466 203T475 256V428Q475 458 467 481T442 521T405 545T357 553Q332 553 311 545T273 521T248 482T239 429V256Q239 226 248 203T273 164T310 139T357 131ZM157 745Q160 787 175 820T216 872T279 891Q314 891 341 881T391 860T436 849Q456 849 467
860T484 890H558Q556 849 541 816T499 763T436 744Q401 744 374 754T324 775T278 786Q259 786 248 775T232 745H157Z" />
<glyph unicode="&#xd6;" horiz-adv-x="714" d="M333 -10Q272 -10 219 12T125 75T61 172T38 296V389Q38 457 61 513T124 609T218 672T333 694H381Q443 694 496 672T590 610T654 513T677 389V296Q677 228 654 172T590 76T496 13T382 -10H333ZM357 131Q383 131 404
139T442 164T466 203T475 256V428Q475 458 467 481T442 521T405 545T357 553Q332 553 311 545T273 521T248 482T239 429V256Q239 226 248 203T273 164T310 139T357 131ZM167 751V882H301V751H167ZM414 751V882H548V751H414Z" />
<glyph unicode="&#xd7;" horiz-adv-x="615" d="M168 33L85 117L223 256L85 395L168 479L307 340L447 479L530 395L391 256L530 117L446 33L307 172L168 33Z" />
<glyph unicode="&#xd8;" horiz-adv-x="714" d="M333 -10Q272 -10 219 12T125 75T61 172T38 296V389Q38 457 61 513T124 609T218 672T333 694H381Q443 694 496 672T590 610T654 513T677 389V296Q677 228 654 172T590 76T496 13T382 -10H333ZM357 131Q383 131 404
139T442 164T466 203T475 256V428Q475 458 467 481T442 521T405 545T357 553Q332 553 311 545T273 521T248 482T239 429V256Q239 226 248 203T273 164T310 139T357 131ZM57 177L556 996H655L157 177H57Z" />
<glyph unicode="&#xd9;" horiz-adv-x="686" d="M315 -10Q236 -10 178 19T90 100T59 221V686H248V221Q248 181 275 156T343 131Q385 131 411 156T438 221V686H627V221Q627 152 592 100T496 19T353 -10H315ZM541 745L417 885L419 888H575L668 745H541Z" />
<glyph unicode="&#xda;" horiz-adv-x="686" d="M315 -10Q236 -10 178 19T90 100T59 221V686H248V221Q248 181 275 156T343 131Q385 131 411 156T438 221V686H627V221Q627 152 592 100T496 19T353 -10H315ZM280 745L373 888H529L531 885L407 745H280Z" />
<glyph unicode="&#xdb;" horiz-adv-x="686" d="M315 -10Q236 -10 178 19T90 100T59 221V686H248V221Q248 181 275 156T343 131Q385 131 411 156T438 221V686H627V221Q627 152 592 100T496 19T353 -10H315ZM150 750L261 885H427L537 750H415L327 853H360L272 750H150Z" />
<glyph unicode="&#xdc;" horiz-adv-x="686" d="M315 -10Q236 -10 178 19T90 100T59 221V686H248V221Q248 181 275 156T343 131Q385 131 411 156T438 221V686H627V221Q627 152 592 100T496 19T353 -10H315ZM153 751V882H287V751H153ZM400 751V882H534V751H400Z" />
<glyph unicode="&#xdd;" horiz-adv-x="636" d="M224 0V263L-6 686H206L324 442H329L449 686H642L413 263V0H224ZM264 745L357 888H513L515 885L391 745H264Z" />
<glyph unicode="&#xde;" horiz-adv-x="644" d="M64 0V686H252V579H417Q475 579 521 551T596 476T624 372Q624 306 597 256T522 178T416 150H252V0H64ZM252 285H367Q401 285 417 305T434 361Q434 396 418 417T367 438H252V285Z" />
<glyph unicode="&#xdf;" horiz-adv-x="647" d="M92 -66V382H31V511H92Q95 581 132 629T226 702T347 728Q391 728 434 718T513 686T569 628T591 542Q591 509 580 480T547 429T496 394V389Q550 370 583 322T617 217Q617 145 586 97T500 25T377 0H310V134H347Q373
134 394 147T427 182T440 230Q440 257 428 279T394 314T347 327H310V438H345Q366 438 383 448T411 476T421 516Q421 538 412 555T386 583T347 593Q314 593 292 570T269 512V-66H92Z" />
<glyph unicode="&#xe0;" horiz-adv-x="619" d="M191 -10Q150 -10 113 4T52 50T29 136Q29 190 52 224T119 278T225 305T366 313V352Q366 386 345 400T291 415Q259 415 238 401T216 360V354H45Q44 357 44 361T44 370Q44 413 73 447T154 501T278 521H307Q424 521
481 476T538 361V137Q538 117 548 109T569 101Q578 101 587 103T606 111V13Q593 3 570 -3T510 -10Q468 -10 440 1T395 30T374 74Q348 40 303 15T191 -10ZM283 101Q304 101 323 111T354 140T366 186V229Q314 229 281 221T231 196T214 155Q214 124 234 113T283 101ZM493
584L373 758L375 761H524L612 584H493Z" />
<glyph unicode="&#xe1;" horiz-adv-x="619" d="M191 -10Q150 -10 113 4T52 50T29 136Q29 190 52 224T119 278T225 305T366 313V352Q366 386 345 400T291 415Q259 415 238 401T216 360V354H45Q44 357 44 361T44 370Q44 413 73 447T154 501T278 521H307Q424 521
481 476T538 361V137Q538 117 548 109T569 101Q578 101 587 103T606 111V13Q593 3 570 -3T510 -10Q468 -10 440 1T395 30T374 74Q348 40 303 15T191 -10ZM283 101Q304 101 323 111T354 140T366 186V229Q314 229 281 221T231 196T214 155Q214 124 234 113T283 101ZM228
584L316 761H465L467 758L347 584H228Z" />
<glyph unicode="&#xe2;" horiz-adv-x="619" d="M191 -10Q150 -10 113 4T52 50T29 136Q29 190 52 224T119 278T225 305T366 313V352Q366 386 345 400T291 415Q259 415 238 401T216 360V354H45Q44 357 44 361T44 370Q44 413 73 447T154 501T278 521H307Q424 521
481 476T538 361V137Q538 117 548 109T569 101Q578 101 587 103T606 111V13Q593 3 570 -3T510 -10Q468 -10 440 1T395 30T374 74Q348 40 303 15T191 -10ZM283 101Q304 101 323 111T354 140T366 186V229Q314 229 281 221T231 196T214 155Q214 124 234 113T283 101ZM345
577L481 760H616L752 577H624L509 736H587L472 577H345Z" />
<glyph unicode="&#xe3;" horiz-adv-x="619" d="M191 -10Q150 -10 113 4T52 50T29 136Q29 190 52 224T119 278T225 305T366 313V352Q366 386 345 400T291 415Q259 415 238 401T216 360V354H45Q44 357 44 361T44 370Q44 413 73 447T154 501T278 521H307Q424 521
481 476T538 361V137Q538 117 548 109T569 101Q578 101 587 103T606 111V13Q593 3 570 -3T510 -10Q468 -10 440 1T395 30T374 74Q348 40 303 15T191 -10ZM283 101Q304 101 323 111T354 140T366 186V229Q314 229 281 221T231 196T214 155Q214 124 234 113T283 101ZM339
586Q342 633 357 670T401 728T466 750Q503 750 531 735T584 706T631 691Q653 691 665 707T683 750H758Q756 703 740 666T697 608T631 586Q594 586 566 601T513 630T466 645Q444 645 432 629T414 586H339Z" />
<glyph unicode="&#xe4;" horiz-adv-x="619" d="M191 -10Q150 -10 113 4T52 50T29 136Q29 190 52 224T119 278T225 305T366 313V352Q366 386 345 400T291 415Q259 415 238 401T216 360V354H45Q44 357 44 361T44 370Q44 413 73 447T154 501T278 521H307Q424 521
481 476T538 361V137Q538 117 548 109T569 101Q578 101 587 103T606 111V13Q593 3 570 -3T510 -10Q468 -10 440 1T395 30T374 74Q348 40 303 15T191 -10ZM283 101Q304 101 323 111T354 140T366 186V229Q314 229 281 221T231 196T214 155Q214 124 234 113T283 101ZM358
604V735H492V604H358ZM605 604V735H739V604H605Z" />
<glyph unicode="&#xe5;" horiz-adv-x="619" d="M191 -10Q150 -10 113 4T52 50T29 136Q29 190 52 224T119 278T225 305T366 313V352Q366 386 345 400T291 415Q259 415 238 401T216 360V354H45Q44 357 44 361T44 370Q44 413 73 447T154 501T278 521H307Q424 521
481 476T538 361V137Q538 117 548 109T569 101Q578 101 587 103T606 111V13Q593 3 570 -3T510 -10Q468 -10 440 1T395 30T374 74Q348 40 303 15T191 -10ZM283 101Q304 101 323 111T354 140T366 186V229Q314 229 281 221T231 196T214 155Q214 124 234 113T283 101ZM547
569Q501 569 470 597T439 673Q439 720 470 749T548 778Q594 778 625 750T656 674Q656 628 625 599T547 569ZM547 635Q564 635 574 646T585 674Q585 690 574 701T547 712Q531 712 521 701T510 673Q510 657 521 646T547 635Z" />
<glyph unicode="&#xe6;" horiz-adv-x="920" d="M200 -10Q156 -10 117 4T54 49T29 135Q29 188 52 223T119 277T225 305T366 313V352Q366 386 345 400T290 415Q258 415 237 401T216 360V354H45Q44 357 44 361T44 370Q44 413 72 447T153 501T277 521H306Q364 521
403 506T469 462Q498 491 536 506T622 521H645Q720 521 773 492T856 412T885 294V232H548Q548 196 555 166T582 119T636 101Q663 101 681 111T709 143T719 192H884Q884 135 855 89T772 17T642 -10H629Q560 -10 511 17T427 91Q398 60 365 38T292 3T200 -10ZM282
101Q304 101 323 111T354 140T366 186V229Q314 229 281 221T231 196T214 155Q214 124 234 113T282 101ZM548 313H710Q710 364 688 387T629 411Q594 411 572 386T548 313Z" />
<glyph unicode="&#xe7;" horiz-adv-x="566" d="M276 -10Q210 -10 155 22T66 111T33 237V274Q33 327 52 371T106 450T184 502T279 521H306Q379 521 430 493T509 417T537 306H384Q384 341 376 364T349 399T304 411Q269 411 246 387T222 323V189Q222 150 243 126T306
101Q337 101 356 110T385 143T394 206H537Q537 137 507 89T424 16T302 -10H276ZM552 -211Q521 -211 491 -203T439 -178L467 -120Q482 -130 500 -139T548 -148Q567 -148 578 -140T589 -118Q589 -103 580 -98T557 -92H535V-31H569Q597 -31 621 -39T662 -65T678 -116Q678
-150 659 -171T611 -201T552 -211Z" />
<glyph unicode="&#xe8;" horiz-adv-x="595" d="M297 -10Q221 -10 161 19T67 104T33 241V270Q33 350 67 406T161 492T298 521H320Q396 521 449 492T531 412T560 294V232H222Q222 195 230 165T256 118T307 101Q335 101 354 111T384 143T395 192H559Q559 135 529
89T443 17T311 -10H297ZM223 313H385Q385 364 363 387T305 411Q269 411 246 386T223 313ZM502 584L382 758L384 761H533L621 584H502Z" />
<glyph unicode="&#xe9;" horiz-adv-x="595" d="M297 -10Q221 -10 161 19T67 104T33 241V270Q33 350 67 406T161 492T298 521H320Q396 521 449 492T531 412T560 294V232H222Q222 195 230 165T256 118T307 101Q335 101 354 111T384 143T395 192H559Q559 135 529
89T443 17T311 -10H297ZM223 313H385Q385 364 363 387T305 411Q269 411 246 386T223 313ZM237 584L325 761H474L476 758L356 584H237Z" />
<glyph unicode="&#xea;" horiz-adv-x="595" d="M297 -10Q221 -10 161 19T67 104T33 241V270Q33 350 67 406T161 492T298 521H320Q396 521 449 492T531 412T560 294V232H222Q222 195 230 165T256 118T307 101Q335 101 354 111T384 143T395 192H559Q559 135 529
89T443 17T311 -10H297ZM223 313H385Q385 364 363 387T305 411Q269 411 246 386T223 313ZM354 577L490 760H625L761 577H633L518 736H596L481 577H354Z" />
<glyph unicode="&#xeb;" horiz-adv-x="595" d="M297 -10Q221 -10 161 19T67 104T33 241V270Q33 350 67 406T161 492T298 521H320Q396 521 449 492T531 412T560 294V232H222Q222 195 230 165T256 118T307 101Q335 101 354 111T384 143T395 192H559Q559 135 529
89T443 17T311 -10H297ZM223 313H385Q385 364 363 387T305 411Q269 411 246 386T223 313ZM367 604V735H501V604H367ZM614 604V735H748V604H614Z" />
<glyph unicode="&#xec;" horiz-adv-x="292" d="M57 0V510H235V0H57ZM91 584L-29 758L-27 761H122L210 584H91Z" />
<glyph unicode="&#xed;" horiz-adv-x="292" d="M57 0V510H235V0H57ZM338 584L426 761H575L577 758L457 584H338Z" />
<glyph unicode="&#xee;" horiz-adv-x="292" d="M57 0V510H235V0H57ZM-23 577L87 760H206L316 577H204L110 734H183L88 577H-23Z" />
<glyph unicode="&#xef;" horiz-adv-x="292" d="M57 0V510H235V0H57ZM-22 604V735H112V604H-22ZM181 604V735H315V604H181Z" />
<glyph unicode="&#xf0;" horiz-adv-x="610" d="M290 -10Q216 -10 158 22T67 112T33 246V266Q33 331 58 388T129 480T239 516Q257 516 274 514T304 506Q293 523 272 544T229 586L158 552L104 599L183 636Q164 653 143 667T99 691L203 737Q227 728 250 717T298 690L373
726L424 679L359 648Q421 600 470 538T547 407T576 266V246Q576 169 543 112T451 22T319 -10H290ZM304 101Q328 101 346 112T376 143T387 190V322Q387 349 376 368T347 399T304 411Q282 411 263 400T233 369T222 322V190Q222 164 233 144T263 112T304 101Z" />
<glyph unicode="&#xf1;" horiz-adv-x="598" d="M56 0V511H189L208 437Q240 480 280 500T377 521Q428 521 466 502T524 447T544 365V0H367V322Q367 355 349 374T302 393Q284 393 268 384T243 357T234 319V0H56ZM343 586Q346 633 361 670T405 728T470 750Q507 750
535 735T588 706T635 691Q657 691 669 707T687 750H762Q760 703 744 666T701 608T635 586Q598 586 570 601T517 630T470 645Q448 645 436 629T418 586H343Z" />
<glyph unicode="&#xf2;" horiz-adv-x="609" d="M291 -10Q217 -10 159 22T67 112T33 246V266Q33 343 66 400T158 489T290 521H318Q393 521 451 489T542 400T576 266V246Q576 169 543 112T451 22T319 -10H291ZM304 101Q328 101 346 112T376 143T387 190V322Q387
349 376 368T347 399T304 411Q282 411 263 400T233 369T222 322V190Q222 164 233 144T263 112T304 101ZM506 584L386 758L388 761H537L625 584H506Z" />
<glyph unicode="&#xf3;" horiz-adv-x="609" d="M291 -10Q217 -10 159 22T67 112T33 246V266Q33 343 66 400T158 489T290 521H318Q393 521 451 489T542 400T576 266V246Q576 169 543 112T451 22T319 -10H291ZM304 101Q328 101 346 112T376 143T387 190V322Q387
349 376 368T347 399T304 411Q282 411 263 400T233 369T222 322V190Q222 164 233 144T263 112T304 101ZM241 584L329 761H478L480 758L360 584H241Z" />
<glyph unicode="&#xf4;" horiz-adv-x="609" d="M291 -10Q217 -10 159 22T67 112T33 246V266Q33 343 66 400T158 489T290 521H318Q393 521 451 489T542 400T576 266V246Q576 169 543 112T451 22T319 -10H291ZM304 101Q328 101 346 112T376 143T387 190V322Q387
349 376 368T347 399T304 411Q282 411 263 400T233 369T222 322V190Q222 164 233 144T263 112T304 101ZM101 577L237 760H372L508 577H380L265 736H343L228 577H101Z" />
<glyph unicode="&#xf5;" horiz-adv-x="609" d="M291 -10Q217 -10 159 22T67 112T33 246V266Q33 343 66 400T158 489T290 521H318Q393 521 451 489T542 400T576 266V246Q576 169 543 112T451 22T319 -10H291ZM304 101Q328 101 346 112T376 143T387 190V322Q387
349 376 368T347 399T304 411Q282 411 263 400T233 369T222 322V190Q222 164 233 144T263 112T304 101ZM95 586Q98 633 113 670T157 728T222 750Q259 750 287 735T340 706T387 691Q409 691 421 707T439 750H514Q512 703 496 666T453 608T387 586Q350 586 322 601T269
630T222 645Q200 645 188 629T170 586H95Z" />
<glyph unicode="&#xf6;" horiz-adv-x="609" d="M291 -10Q217 -10 159 22T67 112T33 246V266Q33 343 66 400T158 489T290 521H318Q393 521 451 489T542 400T576 266V246Q576 169 543 112T451 22T319 -10H291ZM304 101Q328 101 346 112T376 143T387 190V322Q387
349 376 368T347 399T304 411Q282 411 263 400T233 369T222 322V190Q222 164 233 144T263 112T304 101ZM114 604V735H248V604H114ZM361 604V735H495V604H361Z" />
<glyph unicode="&#xf7;" horiz-adv-x="615" d="M51 198V316H563V198H51ZM249 25V144H368V25H249ZM249 369V488H368V369H249Z" />
<glyph unicode="&#xf8;" horiz-adv-x="609" d="M291 -10Q217 -10 159 22T67 112T33 246V266Q33 343 66 400T158 489T290 521H318Q393 521 451 489T542 400T576 266V246Q576 169 543 112T451 22T319 -10H291ZM304 101Q328 101 346 112T376 143T387 190V322Q387
349 376 368T347 399T304 411Q282 411 263 400T233 369T222 322V190Q222 164 233 144T263 112T304 101ZM321 205L717 829H802L407 205H321Z" />
<glyph unicode="&#xf9;" horiz-adv-x="627" d="M218 -10Q139 -10 96 33T52 154V511H229V191Q229 157 244 138T293 118Q312 118 328 128T353 155T363 192V511H540V137Q540 117 550 109T571 101Q580 101 589 103T608 111V13Q595 3 572 -3T512 -10Q471 -10 444 0T401
29T376 72Q351 33 310 12T218 -10ZM499 584L379 758L381 761H530L618 584H499Z" />
<glyph unicode="&#xfa;" horiz-adv-x="627" d="M218 -10Q139 -10 96 33T52 154V511H229V191Q229 157 244 138T293 118Q312 118 328 128T353 155T363 192V511H540V137Q540 117 550 109T571 101Q580 101 589 103T608 111V13Q595 3 572 -3T512 -10Q471 -10 444 0T401
29T376 72Q351 33 310 12T218 -10ZM234 584L322 761H471L473 758L353 584H234Z" />
<glyph unicode="&#xfb;" horiz-adv-x="627" d="M218 -10Q139 -10 96 33T52 154V511H229V191Q229 157 244 138T293 118Q312 118 328 128T353 155T363 192V511H540V137Q540 117 550 109T571 101Q580 101 589 103T608 111V13Q595 3 572 -3T512 -10Q471 -10 444 0T401
29T376 72Q351 33 310 12T218 -10ZM351 577L487 760H622L758 577H630L515 736H593L478 577H351Z" />
<glyph unicode="&#xfc;" horiz-adv-x="627" d="M218 -10Q139 -10 96 33T52 154V511H229V191Q229 157 244 138T293 118Q312 118 328 128T353 155T363 192V511H540V137Q540 117 550 109T571 101Q580 101 589 103T608 111V13Q595 3 572 -3T512 -10Q471 -10 444 0T401
29T376 72Q351 33 310 12T218 -10ZM364 604V735H498V604H364ZM611 604V735H745V604H611Z" />
<glyph unicode="&#xfd;" horiz-adv-x="547" d="M129 -187Q100 -187 76 -184T35 -172V-53Q46 -58 67 -62T108 -66Q137 -66 153 -54T177 -24T191 13L0 511H190L282 223H289L371 511H546L370 33Q347 -29 314 -78T236 -157T129 -187ZM217 584L305 761H454L456 758L336
584H217Z" />
<glyph unicode="&#xfe;" horiz-adv-x="606" d="M56 -181V720H234V472Q255 493 287 507T361 521Q422 521 470 495T545 414T573 270V249Q573 163 545 105T471 19T370 -10Q317 -10 284 9T234 56V-181H56ZM309 101Q331 101 347 112T374 144T384 190V316Q384 345 374
365T348 396T309 408Q288 408 271 397T244 366T234 317V190Q234 164 243 144T270 112T309 101Z" />
<glyph unicode="&#xff;" horiz-adv-x="547" d="M129 -187Q100 -187 76 -184T35 -172V-53Q46 -58 67 -62T108 -66Q137 -66 153 -54T177 -24T191 13L0 511H190L282 223H289L371 511H546L370 33Q347 -29 314 -78T236 -157T129 -187ZM346 604V735H480V604H346ZM593
604V735H727V604H593Z" />
<glyph unicode="&#x2013;" horiz-adv-x="500" d="M0 202V346H500V202H0Z" />
<glyph unicode="&#x2014;" horiz-adv-x="910" d="M0 202V346H910V202H0Z" />
<glyph unicode="&#x2018;" horiz-adv-x="266" d="M213 698V678Q177 641 160 603T142 521H215V349H52V495Q52 554 71 606T128 698H213Z" />
<glyph unicode="&#x2019;" horiz-adv-x="260" d="M51 349V370Q88 406 105 444T123 526H49V698H212V553Q212 494 194 443T137 349H51Z" />
<glyph unicode="&#x201a;" horiz-adv-x="280" d="M62 -177V-156Q98 -120 115 -82T133 0H60V162H223V27Q223 -32 204 -83T147 -177H62Z" />
<glyph unicode="&#x201c;" horiz-adv-x="488" d="M464 698V678Q428 641 411 603T393 521H466V349H303V495Q303 554 322 606T379 698H464ZM437 698V678Q401 641 384 603T366 521H439V349H276V495Q276 554 295 606T352 698H437Z" />
<glyph unicode="&#x201d;" horiz-adv-x="493" d="M51 349V370Q88 406 105 444T123 526H49V698H212V553Q212 494 194 443T137 349H51ZM280 349V370Q317 406 334 444T352 526H278V698H441V553Q441 494 423 443T366 349H280Z" />
<glyph unicode="&#x201e;" horiz-adv-x="509" d="M63 -177V-156Q99 -120 116 -82T134 0H61V162H224V27Q224 -32 205 -83T148 -177H63ZM291 -177V-156Q327 -120 344 -82T362 0H289V162H452V27Q452 -32 433 -83T376 -177H291Z" />
<glyph unicode="&#x2022;" horiz-adv-x="600" d="M299 176Q253 176 215 198T155 259T132 343Q132 390 154 427T215 487T299 510Q346 510 384 488T444 428T467 343Q467 298 445 260T384 199T299 176Z" />
<glyph unicode="&#x2039;" horiz-adv-x="263" d="M153 163L33 337L153 511H223L136 337L223 163H153Z" />
<glyph unicode="&#x203a;" horiz-adv-x="263" d="M40 163L126 337L40 511H109L230 337L109 163H40Z" />
</font>
</defs>
</svg>
